<svg xmlns="http://www.w3.org/2000/svg" xmlns:xlink="http://www.w3.org/1999/xlink" width="40" zoomAndPan="magnify" viewBox="0 0 30 30.000001" height="40" preserveAspectRatio="xMidYMid meet" version="1.0"><defs><g/><clipPath id="0b782e2086"><path d="M 0.484375 0 L 29.515625 0 L 29.515625 28.796875 L 0.484375 28.796875 Z M 0.484375 0 " clip-rule="nonzero"/></clipPath><clipPath id="ac50872f40"><path d="M 4.113281 0 L 25.886719 0 C 27.890625 0 29.515625 1.625 29.515625 3.628906 L 29.515625 25.167969 C 29.515625 27.171875 27.890625 28.796875 25.886719 28.796875 L 4.113281 28.796875 C 2.109375 28.796875 0.484375 27.171875 0.484375 25.167969 L 0.484375 3.628906 C 0.484375 1.625 2.109375 0 4.113281 0 Z M 4.113281 0 " clip-rule="nonzero"/></clipPath></defs><g clip-path="url(#0b782e2086)"><g clip-path="url(#ac50872f40)"><path fill="#111827" d="M 0.484375 0 L 29.503906 0 L 29.503906 28.796875 L 0.484375 28.796875 Z M 0.484375 0 " fill-opacity="1" fill-rule="nonzero"/></g></g><g fill="#ffffff" fill-opacity="1"><g transform="translate(7.912025, 21.805993)"><g><path d="M 4.21875 -16.171875 L 4.21875 -6.96875 C 4.21875 -5.394531 4.445312 -4.222656 4.90625 -3.453125 C 5.363281 -2.691406 6.085938 -2.3125 7.078125 -2.3125 C 8.078125 -2.3125 8.800781 -2.691406 9.25 -3.453125 C 9.707031 -4.210938 9.9375 -5.367188 9.9375 -6.921875 L 9.9375 -16.171875 L 13.09375 -16.171875 L 13.09375 -6.421875 C 13.09375 -4.242188 12.578125 -2.554688 11.546875 -1.359375 C 10.523438 -0.171875 9.035156 0.421875 7.078125 0.421875 C 5.117188 0.421875 3.628906 -0.175781 2.609375 -1.375 C 1.585938 -2.570312 1.078125 -4.253906 1.078125 -6.421875 L 1.078125 -16.171875 Z M 4.21875 -16.171875 "/></g></g></g></svg>